<?xml version="1.0" standalone="no"?>
<!DOCTYPE svg PUBLIC "-//W3C//DTD SVG 20010904//EN"
 "http://www.w3.org/TR/2001/REC-SVG-20010904/DTD/svg10.dtd">
<svg version="1.0" xmlns="http://www.w3.org/2000/svg"
 width="200.000000pt" height="200.000000pt" viewBox="0 0 200.000000 200.000000"
 preserveAspectRatio="xMidYMid meet">
<metadata>
Created by potrace 1.14, written by Peter Selinger 2001-2017
</metadata>
<g transform="translate(0.000000,200.000000) scale(0.100000,-0.100000)"
fill="#000000" stroke="none">
<path d="M893 1744 c-80 -21 -131 -50 -190 -110 -61 -61 -98 -133 -111 -216
-26 -166 55 -334 198 -412 72 -39 142 -56 219 -51 321 19 489 376 300 639 -87
122 -272 189 -416 150z"/>
<path d="M1140 915 c-48 -26 -95 -165 -99 -295 -2 -65 -19 -100 -47 -100 -17
0 -22 20 -13 55 17 72 18 94 3 109 -26 26 -78 -3 -110 -61 l-16 -28 6 33 c16
93 -63 88 -115 -8 -11 -19 -18 -26 -15 -15 20 90 18 99 -21 84 -15 -5 -24 -20
-29 -43 -8 -48 -37 -48 -60 -1 -30 64 -117 65 -159 2 -39 -60 -26 -144 27
-170 53 -25 103 -5 133 54 20 37 53 33 46 -5 -5 -24 11 -54 30 -59 16 -4 23 1
33 26 7 18 17 41 21 52 5 11 8 22 7 25 0 3 8 17 19 30 l20 25 -4 -67 c-3 -57
-1 -71 15 -85 25 -22 40 -7 62 63 9 29 26 60 37 70 21 19 21 19 14 -21 -13
-78 -12 -88 6 -106 23 -23 61 -19 101 11 24 18 29 19 34 6 5 -14 29 -26 64
-32 8 -2 29 5 47 16 26 15 34 16 50 5 29 -21 84 -24 126 -7 32 12 40 13 47 2
5 -8 16 -15 25 -16 16 -2 19 4 60 103 21 49 49 69 38 25 -13 -51 -8 -104 11
-117 19 -14 62 -11 84 7 10 9 20 7 42 -5 22 -14 34 -15 57 -7 24 9 20 3 -23
-37 -86 -81 -107 -152 -53 -182 54 -30 110 32 139 156 12 49 19 58 67 91 29
21 53 45 53 55 0 24 -19 21 -63 -9 l-38 -25 6 23 c3 13 9 46 14 75 l8 51 -40
16 c-36 14 -43 14 -74 0 -40 -20 -71 -60 -80 -106 -7 -34 -24 -58 -42 -58 -18
0 -19 14 -6 82 13 69 10 84 -15 89 -31 6 -63 -14 -92 -59 -16 -26 -28 -38 -25
-27 22 84 19 99 -20 84 -15 -5 -24 -20 -29 -46 -5 -21 -9 -41 -10 -45 -1 -5
-2 -16 -3 -27 -2 -36 -77 -68 -115 -49 -16 9 -14 12 23 29 91 41 82 154 -11
143 -53 -7 -88 -49 -97 -119 -5 -32 -11 -41 -34 -50 -24 -8 -31 -6 -43 9 -11
16 -10 24 15 60 85 126 118 268 73 319 -18 20 -29 21 -62 2z m32 -52 c0 -10 2
-25 3 -33 2 -25 -26 -112 -52 -160 l-25 -45 7 54 c7 66 12 91 32 154 15 47 32
62 35 30z m138 -238 c0 -18 -28 -45 -46 -45 -18 0 -18 20 1 47 16 23 45 21 45
-2z m445 -22 c-8 -58 -29 -95 -50 -87 -24 9 -18 63 11 101 36 47 48 43 39 -14z
m-1205 19 c0 -10 7 -27 15 -40 12 -16 13 -26 5 -42 -24 -44 -72 -13 -66 43 5
44 46 79 46 39z m1165 -257 c-20 -69 -55 -102 -55 -52 0 19 53 97 65 97 2 0
-2 -20 -10 -45z"/>
<path d="M232 875 c-55 -17 -79 -39 -92 -83 -18 -66 21 -115 120 -152 45 -17
80 -48 80 -72 0 -21 -34 -45 -75 -51 -44 -6 -95 10 -96 31 -1 9 -2 25 -3 36 0
10 -9 24 -19 30 -23 14 -47 -15 -47 -57 0 -36 48 -86 84 -89 14 -1 41 -3 59
-4 51 -4 123 23 143 54 24 36 23 95 -1 123 -11 12 -52 36 -92 54 -85 39 -103
64 -77 108 14 24 87 34 120 17 18 -10 24 -22 24 -45 0 -42 20 -60 45 -41 27
19 24 81 -6 112 -19 21 -39 28 -109 39 -8 1 -34 -3 -58 -10z"/>
</g>
</svg>
